<svg width="20" height="20" viewBox="0 0 20 20" fill="none" xmlns="http://www.w3.org/2000/svg">
<g clip-path="url(#clip0_1282_10)">
<path d="M5.1675 17.5H1.53938V5.81625H5.1675V17.5ZM3.35125 4.2225C2.19125 4.2225 1.25 3.26125 1.25 2.10125C1.25 1.54396 1.47138 1.0095 1.86544 0.615442C2.2595 0.221381 2.79396 0 3.35125 0C3.90854 0 4.443 0.221381 4.83706 0.615442C5.23112 1.0095 5.4525 1.54396 5.4525 2.10125C5.4525 3.26125 4.51125 4.2225 3.35125 4.2225ZM18.7462 17.5H15.1262V11.8125C15.1262 10.4569 15.0987 8.71875 13.24 8.71875C11.3537 8.71875 11.0644 10.1912 11.0644 11.715V17.5H7.44V5.81625H10.9194V7.41H10.97C11.4544 6.49188 12.6375 5.52312 14.4025 5.52312C18.0744 5.52312 18.7494 7.94125 18.7494 11.0819V17.5H18.7462Z" fill="white"/>
</g>
<defs>
<clipPath id="clip0_1282_10">
<rect width="20" height="20" fill="white"/>
</clipPath>
</defs>
</svg>
