<svg xmlns="http://www.w3.org/2000/svg" aria-hidden="true" style="position:absolute;width:0;height:0;overflow:hidden"><defs><symbol id="icon-cib_linkedin-in" viewBox="0 0 32 32"><path d="M8.268 28H2.463V9.306h5.805V28zM5.362 6.756C3.506 6.756 2 5.218 2 3.362A3.366 3.366 0 0 1 5.362 0a3.366 3.366 0 0 1 3.362 3.362c0 1.856-1.506 3.394-3.362 3.394zM29.994 28h-5.792v-9.1c0-2.169-.044-4.95-3.018-4.95-3.018 0-3.481 2.356-3.481 4.794V28h-5.799V9.306h5.567v2.55h.081c.775-1.469 2.668-3.019 5.492-3.019 5.875 0 6.955 3.869 6.955 8.894V28h-.005z"/></symbol><symbol id="icon-twitter" viewBox="0 0 32 32"><path d="M30.134 5.599a13.49 13.49 0 0 1-3.882 1.892 5.548 5.548 0 0 0-6.155-1.54 5.545 5.545 0 0 0-3.564 5.249v1.236A13.184 13.184 0 0 1 5.406 6.835S.461 17.962 11.588 22.908a14.397 14.397 0 0 1-8.655 2.473c11.127 6.182 24.727 0 24.727-14.218a5.522 5.522 0 0 0-.099-1.026A9.55 9.55 0 0 0 30.133 5.6z"/></symbol><symbol id="icon-facebook" viewBox="0 0 32 32"><path d="M22.4 2.667h-4a6.67 6.67 0 0 0-6.667 6.667v4h-4v5.333h4v10.667h5.333V18.667h4l1.333-5.333h-5.333v-4A1.335 1.335 0 0 1 18.4 8h4V2.667z"/></symbol></defs></svg>