<svg width="20" height="20" viewBox="0 0 20 20" fill="none" xmlns="http://www.w3.org/2000/svg">
<path d="M18.8335 3.49935C18.0935 4.02131 17.2742 4.42052 16.4071 4.68162C15.9418 4.14651 15.3233 3.76725 14.6353 3.59511C13.9473 3.42297 13.2231 3.46627 12.5606 3.71915C11.898 3.97203 11.3291 4.42229 10.9308 5.00904C10.5325 5.59578 10.324 6.2907 10.3335 6.9998V7.77253C8.97553 7.80774 7.62994 7.50657 6.41655 6.89583C5.20316 6.28509 4.15965 5.38375 3.37895 4.27207C3.37895 4.27207 0.288042 11.2266 7.24259 14.3175C5.65118 15.3978 3.75539 15.9394 1.8335 15.863C8.78804 19.7266 17.288 15.863 17.288 6.97662C17.2873 6.76138 17.2666 6.54667 17.2262 6.33526C18.0149 5.5575 18.5714 4.57553 18.8335 3.49935Z" fill="white"/>
</svg>
